<?xml version="1.0" encoding="UTF-8" standalone="no"?>
<!-- Created with Inkscape (http://www.inkscape.org/) -->

<svg
   xmlns:dc="http://purl.org/dc/elements/1.1/"
   xmlns:cc="http://creativecommons.org/ns#"
   xmlns:rdf="http://www.w3.org/1999/02/22-rdf-syntax-ns#"
   xmlns:svg="http://www.w3.org/2000/svg"
   xmlns="http://www.w3.org/2000/svg"
   xmlns:sodipodi="http://sodipodi.sourceforge.net/DTD/sodipodi-0.dtd"
   xmlns:inkscape="http://www.inkscape.org/namespaces/inkscape"
   id="svg2985"
   version="1.1"
   inkscape:version="0.48.4 r9939"
   width="945"
   height="683.75"
   xml:space="preserve"
   sodipodi:docname="weightChange.eps"><metadata
     id="metadata2991"><rdf:RDF><cc:Work
         rdf:about=""><dc:format>image/svg+xml</dc:format><dc:type
           rdf:resource="http://purl.org/dc/dcmitype/StillImage" /><dc:title></dc:title></cc:Work></rdf:RDF></metadata><defs
     id="defs2989" /><sodipodi:namedview
     pagecolor="#ffffff"
     bordercolor="#666666"
     borderopacity="1"
     objecttolerance="10"
     gridtolerance="10"
     guidetolerance="10"
     inkscape:pageopacity="0"
     inkscape:pageshadow="2"
     inkscape:window-width="1615"
     inkscape:window-height="1026"
     id="namedview2987"
     showgrid="false"
     inkscape:zoom="0.87593337"
     inkscape:cx="569.70653"
     inkscape:cy="245.31262"
     inkscape:window-x="65"
     inkscape:window-y="24"
     inkscape:window-maximized="1"
     inkscape:current-layer="g2993" /><g
     id="g2993"
     inkscape:groupmode="layer"
     inkscape:label="ink_ext_XXXXXX"
     transform="matrix(1.25,0,0,-1.25,0,683.75)"><g
       id="g2995"
       transform="scale(0.1,0.1)"><g
         id="g2997"
         transform="scale(0.97682,1.02318)"><path
           d="m 692.342,476.288 69.057,0 m 6792.611,0 -69.02,0"
           style="fill:none;stroke:#000000;stroke-opacity:1;stroke-width:10.9594;stroke-linecap:butt;stroke-linejoin:miter;stroke-miterlimit:3.8;stroke-dasharray:none"
           id="path2999" /></g><g
         id="g3001"
         transform="scale(10,10)"><text
           transform="matrix(0.95469,0,0,-1,50.3055,43.575)"
           id="text3003"><tspan
             style="fill:#000000;fill-opacity:1;fill-rule:nonzero;stroke:none;font-family:f-0;font-variant:normal;font-size:15.6988;writing-mode:lr;-inkscape-font-specification:f-0-0"
             x="0"
             y="0"
             id="tspan3005">0</tspan></text>
</g><g
         id="g3007"
         transform="scale(0.97682,1.02318)"><path
           d="m 692.342,1129.47 69.057,0 m 6792.611,0 -69.02,0"
           style="fill:none;stroke:#000000;stroke-opacity:1;stroke-width:10.9594;stroke-linecap:butt;stroke-linejoin:miter;stroke-miterlimit:3.8;stroke-dasharray:none"
           id="path3009" /></g><g
         id="g3011"
         transform="scale(10,10)"><text
           transform="matrix(0.95469,0,0,-1,37.807,110.407)"
           id="text3013"><tspan
             style="fill:#000000;fill-opacity:1;fill-rule:nonzero;stroke:none;font-family:f-0;font-variant:normal;font-size:15.6988;writing-mode:lr;-inkscape-font-specification:f-0-0"
             x="0 8.7285328 13.0927992"
             y="0"
             sodipodi:role="line"
             id="tspan3015">0.2</tspan></text>
</g><g
         id="g3017"
         transform="scale(0.97682,1.02318)"><path
           d="m 692.342,1782.65 69.057,0 m 6792.611,0 -69.02,0"
           style="fill:none;stroke:#000000;stroke-opacity:1;stroke-width:10.9594;stroke-linecap:butt;stroke-linejoin:miter;stroke-miterlimit:3.8;stroke-dasharray:none"
           id="path3019" /></g><g
         id="g3021"
         transform="scale(10,10)"><text
           transform="matrix(0.95469,0,0,-1,37.807,177.239)"
           id="text3023"><tspan
             style="fill:#000000;fill-opacity:1;fill-rule:nonzero;stroke:none;font-family:f-0;font-variant:normal;font-size:15.6988;writing-mode:lr;-inkscape-font-specification:f-0-0"
             x="0 8.7285328 13.0927992"
             y="0"
             sodipodi:role="line"
             id="tspan3025">0.4</tspan></text>
</g><g
         id="g3027"
         transform="scale(0.97682,1.02318)"><path
           d="m 692.342,2435.83 69.057,0 m 6792.611,0 -69.02,0"
           style="fill:none;stroke:#000000;stroke-opacity:1;stroke-width:10.9594;stroke-linecap:butt;stroke-linejoin:miter;stroke-miterlimit:3.8;stroke-dasharray:none"
           id="path3029" /></g><g
         id="g3031"
         transform="scale(10,10)"><text
           transform="matrix(0.95469,0,0,-1,37.807,244.071)"
           id="text3033"><tspan
             style="fill:#000000;fill-opacity:1;fill-rule:nonzero;stroke:none;font-family:f-0;font-variant:normal;font-size:15.6988;writing-mode:lr;-inkscape-font-specification:f-0-0"
             x="0 8.7285328 13.0927992"
             y="0"
             sodipodi:role="line"
             id="tspan3035">0.6</tspan></text>
</g><g
         id="g3037"
         transform="scale(0.97682,1.02318)"><path
           d="m 692.342,3087.9 69.057,0 m 6792.611,0 -69.02,0"
           style="fill:none;stroke:#000000;stroke-opacity:1;stroke-width:10.9594;stroke-linecap:butt;stroke-linejoin:miter;stroke-miterlimit:3.8;stroke-dasharray:none"
           id="path3039" /></g><g
         id="g3041"
         transform="scale(10,10)"><text
           transform="matrix(0.95469,0,0,-1,37.807,310.791)"
           id="text3043"><tspan
             style="fill:#000000;fill-opacity:1;fill-rule:nonzero;stroke:none;font-family:f-0;font-variant:normal;font-size:15.6988;writing-mode:lr;-inkscape-font-specification:f-0-0"
             x="0 8.7285328 13.0927992"
             y="0"
             sodipodi:role="line"
             id="tspan3045">0.8</tspan></text>
</g><g
         id="g3047"
         transform="scale(0.97682,1.02318)"><path
           d="m 692.342,3741.08 69.057,0 m 6792.611,0 -69.02,0"
           style="fill:none;stroke:#000000;stroke-opacity:1;stroke-width:10.9594;stroke-linecap:butt;stroke-linejoin:miter;stroke-miterlimit:3.8;stroke-dasharray:none"
           id="path3049" /></g><g
         id="g3051"
         transform="scale(10,10)"><text
           transform="matrix(0.95469,0,0,-1,50.3055,377.623)"
           id="text3053"><tspan
             style="fill:#000000;fill-opacity:1;fill-rule:nonzero;stroke:none;font-family:f-0;font-variant:normal;font-size:15.6988;writing-mode:lr;-inkscape-font-specification:f-0-0"
             x="0"
             y="0"
             id="tspan3055">1</tspan></text>
</g><g
         id="g3057"
         transform="scale(0.97682,1.02318)"><path
           d="m 692.342,4394.26 69.057,0 m 6792.611,0 -69.02,0"
           style="fill:none;stroke:#000000;stroke-opacity:1;stroke-width:10.9594;stroke-linecap:butt;stroke-linejoin:miter;stroke-miterlimit:3.8;stroke-dasharray:none"
           id="path3059" /></g><g
         id="g3061"
         transform="scale(10,10)"><text
           transform="matrix(0.95469,0,0,-1,37.807,444.455)"
           id="text3063"><tspan
             style="fill:#000000;fill-opacity:1;fill-rule:nonzero;stroke:none;font-family:f-0;font-variant:normal;font-size:15.6988;writing-mode:lr;-inkscape-font-specification:f-0-0"
             x="0 8.7285328 13.0927992"
             y="0"
             sodipodi:role="line"
             id="tspan3065">1.2</tspan></text>
</g><g
         id="g3067"
         transform="scale(0.97682,1.02318)"><path
           d="m 692.342,5047.44 69.057,0 m 6792.611,0 -69.02,0"
           style="fill:none;stroke:#000000;stroke-opacity:1;stroke-width:10.9594;stroke-linecap:butt;stroke-linejoin:miter;stroke-miterlimit:3.8;stroke-dasharray:none"
           id="path3069" /></g><g
         id="g3071"
         transform="scale(10,10)"><text
           transform="matrix(0.95469,0,0,-1,37.807,511.287)"
           id="text3073"><tspan
             style="fill:#000000;fill-opacity:1;fill-rule:nonzero;stroke:none;font-family:f-0;font-variant:normal;font-size:15.6988;writing-mode:lr;-inkscape-font-specification:f-0-0"
             x="0 8.7285328 13.0927992"
             y="0"
             sodipodi:role="line"
             id="tspan3075">1.4</tspan></text>
</g><g
         id="g3077"
         transform="scale(0.97682,1.02318)"><path
           d="m 692.342,476.288 0,69.071 m 0,4502.081 0,-69.02"
           style="fill:none;stroke:#000000;stroke-opacity:1;stroke-width:10.9594;stroke-linecap:butt;stroke-linejoin:miter;stroke-miterlimit:3.8;stroke-dasharray:none"
           id="path3079" /></g><g
         id="g3081"
         transform="scale(10,10)"><text
           transform="matrix(0.95469,0,0,-1,53.0488,27.8762)"
           id="text3083"><tspan
             style="fill:#000000;fill-opacity:1;fill-rule:nonzero;stroke:none;font-family:f-0;font-variant:normal;font-size:15.6988;writing-mode:lr;-inkscape-font-specification:f-0-0"
             x="0 8.7285328 17.4570656 26.1855984"
             y="0"
             sodipodi:role="line"
             id="tspan3085">6400</tspan></text>
</g><g
         id="g3087"
         transform="scale(0.97682,1.02318)"><path
           d="m 1550.47,476.288 0,69.071 m 0,4502.081 0,-69.02"
           style="fill:none;stroke:#000000;stroke-opacity:1;stroke-width:10.9594;stroke-linecap:butt;stroke-linejoin:miter;stroke-miterlimit:3.8;stroke-dasharray:none"
           id="path3089" /></g><g
         id="g3091"
         transform="scale(10,10)"><text
           transform="matrix(0.95469,0,0,-1,136.872,27.8762)"
           id="text3093"><tspan
             style="fill:#000000;fill-opacity:1;fill-rule:nonzero;stroke:none;font-family:f-0;font-variant:normal;font-size:15.6988;writing-mode:lr;-inkscape-font-specification:f-0-0"
             x="0 8.7285328 17.4570656 26.1855984"
             y="0"
             sodipodi:role="line"
             id="tspan3095">6450</tspan></text>
</g><g
         id="g3097"
         transform="scale(0.97682,1.02318)"><path
           d="m 2407.49,476.288 0,69.071 m 0,4502.081 0,-69.02"
           style="fill:none;stroke:#000000;stroke-opacity:1;stroke-width:10.9594;stroke-linecap:butt;stroke-linejoin:miter;stroke-miterlimit:3.8;stroke-dasharray:none"
           id="path3099" /></g><g
         id="g3101"
         transform="scale(10,10)"><text
           transform="matrix(0.95469,0,0,-1,220.588,27.8762)"
           id="text3103"><tspan
             style="fill:#000000;fill-opacity:1;fill-rule:nonzero;stroke:none;font-family:f-0;font-variant:normal;font-size:15.6988;writing-mode:lr;-inkscape-font-specification:f-0-0"
             x="0 8.7285328 17.4570656 26.1855984"
             y="0"
             sodipodi:role="line"
             id="tspan3105">6500</tspan></text>
</g><g
         id="g3107"
         transform="scale(0.97682,1.02318)"><path
           d="m 3265.62,476.288 0,69.071 m 0,4502.081 0,-69.02"
           style="fill:none;stroke:#000000;stroke-opacity:1;stroke-width:10.9594;stroke-linecap:butt;stroke-linejoin:miter;stroke-miterlimit:3.8;stroke-dasharray:none"
           id="path3109" /></g><g
         id="g3111"
         transform="scale(10,10)"><text
           transform="matrix(0.95469,0,0,-1,304.411,27.8762)"
           id="text3113"><tspan
             style="fill:#000000;fill-opacity:1;fill-rule:nonzero;stroke:none;font-family:f-0;font-variant:normal;font-size:15.6988;writing-mode:lr;-inkscape-font-specification:f-0-0"
             x="0 8.7285328 17.4570656 26.1855984"
             y="0"
             sodipodi:role="line"
             id="tspan3115">6550</tspan></text>
</g><g
         id="g3117"
         transform="scale(0.97682,1.02318)"><path
           d="m 4123.75,476.288 0,69.071 m 0,4502.081 0,-69.02"
           style="fill:none;stroke:#000000;stroke-opacity:1;stroke-width:10.9594;stroke-linecap:butt;stroke-linejoin:miter;stroke-miterlimit:3.8;stroke-dasharray:none"
           id="path3119" /></g><g
         id="g3121"
         transform="scale(10,10)"><text
           transform="matrix(0.95469,0,0,-1,388.234,27.8762)"
           id="text3123"><tspan
             style="fill:#000000;fill-opacity:1;fill-rule:nonzero;stroke:none;font-family:f-0;font-variant:normal;font-size:15.6988;writing-mode:lr;-inkscape-font-specification:f-0-0"
             x="0 8.7285328 17.4570656 26.1855984"
             y="0"
             sodipodi:role="line"
             id="tspan3125">6600</tspan></text>
</g><g
         id="g3127"
         transform="scale(0.97682,1.02318)"><path
           d="m 4980.76,476.288 0,69.071 m 0,4502.081 0,-69.02"
           style="fill:none;stroke:#000000;stroke-opacity:1;stroke-width:10.9594;stroke-linecap:butt;stroke-linejoin:miter;stroke-miterlimit:3.8;stroke-dasharray:none"
           id="path3129" /></g><g
         id="g3131"
         transform="scale(10,10)"><text
           transform="matrix(0.95469,0,0,-1,471.95,27.8762)"
           id="text3133"><tspan
             style="fill:#000000;fill-opacity:1;fill-rule:nonzero;stroke:none;font-family:f-0;font-variant:normal;font-size:15.6988;writing-mode:lr;-inkscape-font-specification:f-0-0"
             x="0 8.7285328 17.4570656 26.1855984"
             y="0"
             sodipodi:role="line"
             id="tspan3135">6650</tspan></text>
</g><g
         id="g3137"
         transform="scale(0.97682,1.02318)"><path
           d="m 5838.85,476.288 0,69.071 m 0,4502.081 0,-69.02"
           style="fill:none;stroke:#000000;stroke-opacity:1;stroke-width:10.9594;stroke-linecap:butt;stroke-linejoin:miter;stroke-miterlimit:3.8;stroke-dasharray:none"
           id="path3139" /></g><g
         id="g3141"
         transform="scale(10,10)"><text
           transform="matrix(0.95469,0,0,-1,555.773,27.8762)"
           id="text3143"><tspan
             style="fill:#000000;fill-opacity:1;fill-rule:nonzero;stroke:none;font-family:f-0;font-variant:normal;font-size:15.6988;writing-mode:lr;-inkscape-font-specification:f-0-0"
             x="0 8.7285328 17.4570656 26.1855984"
             y="0"
             sodipodi:role="line"
             id="tspan3145">6700</tspan></text>
</g><g
         id="g3147"
         transform="scale(0.97682,1.02318)"><path
           d="m 6695.92,476.288 0,69.071 m 0,4502.081 0,-69.02"
           style="fill:none;stroke:#000000;stroke-opacity:1;stroke-width:10.9594;stroke-linecap:butt;stroke-linejoin:miter;stroke-miterlimit:3.8;stroke-dasharray:none"
           id="path3149" /></g><g
         id="g3151"
         transform="scale(10,10)"><text
           transform="matrix(0.95469,0,0,-1,639.489,27.8762)"
           id="text3153"><tspan
             style="fill:#000000;fill-opacity:1;fill-rule:nonzero;stroke:none;font-family:f-0;font-variant:normal;font-size:15.6988;writing-mode:lr;-inkscape-font-specification:f-0-0"
             x="0 8.7285328 17.4570656 26.1855984"
             y="0"
             sodipodi:role="line"
             id="tspan3155">6750</tspan></text>
</g><g
         id="g3157"
         transform="scale(0.97682,1.02318)"><path
           d="m 7554.01,476.288 0,69.071 m 0,4502.081 0,-69.02"
           style="fill:none;stroke:#000000;stroke-opacity:1;stroke-width:10.9594;stroke-linecap:butt;stroke-linejoin:miter;stroke-miterlimit:3.8;stroke-dasharray:none"
           id="path3159" /></g><g
         id="g3161"
         transform="scale(10,10)"><text
           transform="matrix(0.95469,0,0,-1,723.311,27.8762)"
           id="text3163"><tspan
             style="fill:#000000;fill-opacity:1;fill-rule:nonzero;stroke:none;font-family:f-0;font-variant:normal;font-size:15.6988;writing-mode:lr;-inkscape-font-specification:f-0-0"
             x="0 8.7285328 17.4570656 26.1855984"
             y="0"
             sodipodi:role="line"
             id="tspan3165">6800</tspan></text>
</g><g
         id="g3167"
         transform="scale(0.97682,1.02318)"><path
           d="m 692.342,5047.44 6861.668,0 0,-4571.152 -6861.668,0 0,4571.152 z"
           style="fill:none;stroke:#000000;stroke-opacity:1;stroke-width:10.9594;stroke-linecap:butt;stroke-linejoin:miter;stroke-miterlimit:3.8;stroke-dasharray:none"
           id="path3169" /></g><g
         id="g3171"
         transform="scale(10,10)"><text
           transform="matrix(0,1,0.95469039,0,11.1059,203.558)"
           id="text3173"><tspan
             style="fill:#000000;fill-opacity:1;fill-rule:nonzero;stroke:none;font-family:f-0;font-variant:normal;font-size:15.69880675;writing-mode:lr;-inkscape-font-specification:f-0-0"
             x="0 10.4711041 19.19964066 27.92817721 36.65671376 41.02098204 51.49208614 55.85635442 61.08405706 69.81259362 78.54113017 87.26966672 91.633935 100.36247155 104.72673983 115.19784393 123.92638048 127.41151558 131.77578386 140.50432041 149.23285697"
             y="0"
             sodipodi:role="line"
             id="tspan3175">Bond Strength/Voltage</tspan></text>
<text
           transform="matrix(0.95469,0,0,-1,368.994,4.32813)"
           id="text3177"><tspan
             style="fill:#000000;fill-opacity:1;fill-rule:nonzero;stroke:none;font-family:f-0;font-variant:normal;font-size:15.6988;writing-mode:lr;-inkscape-font-specification:f-0-0"
             x="0 9.5919668 13.0771004 26.1542008 34.8827336 39.247 44.4747004 57.5518008 65.4012008"
             y="0"
             sodipodi:role="line"
             id="tspan3179">Time (ms)</tspan><tspan
             style="fill:#000000;fill-opacity:1;fill-rule:nonzero;stroke:none;font-family:f-0;font-variant:normal;font-size:15.6988;writing-mode:lr;-inkscape-font-specification:f-0-0"
             x="-58.0428 -47.5717004 -38.8431676 -30.1146348 -21.386102 -17.0218356 -2.2021684 6.5263644 10.011498 18.7400308 27.4685636 31.83283 36.1970964 40.5613628 49.2898956 54.517596 63.2461288 71.9746616 80.7031944 89.4317272 93.7959936 103.3879604 106.873094 119.9501944"
             y="-530.507"
             sodipodi:role="line"
             id="tspan3181">Bond Weight through Time</tspan><tspan
             style="fill:#000000;fill-opacity:1;fill-rule:nonzero;stroke:none;font-family:f-0;font-variant:normal;font-size:15.6988;writing-mode:lr;-inkscape-font-specification:f-0-0"
             x="223.5362 234.0072996 242.7358324 251.4643652 260.192898 264.5571644 279.3768316 288.1053644 291.590498 300.3190308 309.0475636"
             y="-492.0449"
             sodipodi:role="line"
             id="tspan3183">Bond Weight</tspan></text>
</g><g
         id="g3185"
         transform="scale(0.97682,1.02318)"><path
           d="m 6932.61,4901.68 437.28,0 M 692.342,3377.24 l 1750.208,0"
           style="fill:none;stroke:#ff0000;stroke-opacity:1;stroke-width:5.47969;stroke-linecap:butt;stroke-linejoin:miter;stroke-miterlimit:3.8;stroke-dasharray:none"
           id="path3187" /></g><g
         id="g3189"
         transform="scale(0.97682,1.02318)"><path
           d="m 2442.55,3377.24 513.99,0 17.56,-100.82 257.53,0 16.43,295.91 977.59,0"
           style="fill:none;stroke:#ff0000;stroke-opacity:1;stroke-width:5.47969;stroke-linecap:butt;stroke-linejoin:miter;stroke-miterlimit:3.8;stroke-dasharray:none"
           id="path3191" /></g><g
         id="g3193"
         transform="scale(0.97682,1.02318)"><path
           d="m 4225.65,3572.33 154.52,0 17.55,-121.67 789.07,0 17.55,-37.26 103.01,0 16.44,327.68 618.12,0 16.44,-258.62 51.5,0"
           style="fill:none;stroke:#ff0000;stroke-opacity:1;stroke-width:5.47969;stroke-linecap:butt;stroke-linejoin:miter;stroke-miterlimit:3.8;stroke-dasharray:none"
           id="path3195" /></g><g
         id="g3197"
         transform="scale(0.97682,1.02318)"><path
           d="m 6009.85,3482.46 412.06,0 17.55,180.81 1114.55,0"
           style="fill:none;stroke:#ff0000;stroke-opacity:1;stroke-width:5.47969;stroke-linecap:butt;stroke-linejoin:miter;stroke-miterlimit:3.8;stroke-dasharray:none"
           id="path3199" /></g><g
         id="g3201"
         transform="scale(10,10)"><text
           transform="matrix(0.95469,0,0,-1,582.416,480.675)"
           id="text3203"><tspan
             style="fill:#000000;fill-opacity:1;fill-rule:nonzero;stroke:none;font-family:f-0;font-variant:normal;font-size:15.6988;writing-mode:lr;-inkscape-font-specification:f-0-0"
             x="0 10.4710996 15.6988 24.4273328 29.6550332 40.1261328 47.9755328 56.7040656 65.4325984 74.1611312 78.5253976 82.0105312"
             y="0"
             sodipodi:role="line"
             id="tspan3205">Pre-Synaptic</tspan></text>
</g><g
         id="g3207"
         transform="scale(0.97682,1.02318)"><path
           d="m 6932.61,4748.28 437.28,0 M 692.342,476.288 l 1750.208,0"
           style="fill:none;stroke:#00ff00;stroke-opacity:1;stroke-width:5.47969;stroke-linecap:butt;stroke-linejoin:miter;stroke-miterlimit:3.8;stroke-dasharray:none"
           id="path3209" /></g><g
         id="g3211"
         transform="scale(0.97682,1.02318)"><path
           d="m 2442.55,476.288 513.99,0 17.56,3264.792 16.43,-158.9 17.55,-151.25 17.53,-144.66 16.42,-136.98 17.56,-130.42 17.52,-123.84 16.43,-118.35 17.56,-111.78 17.52,-106.33 16.43,-101.9 17.56,-96.47 17.52,-92.05 16.42,-87.66 17.57,-83.29 17.51,-78.91 16.43,-74.53 17.56,-72.35 17.51,-67.92 16.44,-64.67 17.56,-61.38 16.43,-58.08 17.56,-55.89 17.52,-53.72 16.42,-50.39 17.57,-47.15 17.51,-46 16.43,-43.86 17.56,-40.55 17.52,-39.44 16.43,-37.27 17.56,-36.15 17.51,-32.91 16.43,-32.86 17.57,-30.7 17.51,-28.48 16.43,-28.48 17.56,-26.303 17.51,-24.128 16.44,-24.094 17.56,-23.014 17.51,-20.848 16.44,-20.807 17.55,-19.742 16.43,-18.63 17.57,-17.524 17.51,-16.458 16.43,-16.409 17.56,-15.355 17.51,-14.24 16.44,-13.164 17.56,-13.137 17.51,-13.175 16.43,-12.06 17.56,-10.953 17.52,-10.957 16.44,-9.854 17.55,-9.85 17.51,-8.777 16.44,-8.784 17.55,-8.739 17.52,-7.674 16.44,-7.681 17.55,-6.559 17.52,-7.681 16.47,-5.49 17.52,-6.571 17.55,-5.49 16.44,-6.57 17.51,-4.398 16.44,-5.452 17.56,-4.39 17.51,-5.502 16.44,-4.386"
           style="fill:none;stroke:#00ff00;stroke-opacity:1;stroke-width:5.47969;stroke-linecap:butt;stroke-linejoin:miter;stroke-miterlimit:3.8;stroke-dasharray:none"
           id="path3213" /></g><g
         id="g3215"
         transform="scale(0.97682,1.02318)"><path
           d="m 4225.65,560.664 17.55,-3.287 17.52,-4.349 16.44,-3.321 17.55,-4.348 17.51,-3.326 16.44,-3.283 17.55,-2.18 17.52,-3.283 16.44,-3.283 17.55,3262.606 17.51,-161.1 16.48,-154.54 17.52,-145.77 17.55,-139.19 16.44,-132.59 17.51,-126.03 17.56,-119.45 16.43,-114 17.52,-108.5 16.44,-103.01 17.55,-98.65 17.51,-93.15 16.44,-88.76 17.56,-84.37 17.51,-80.02 16.44,-76.7 17.55,-73.46 17.52,-69.02 16.44,-65.74 17.55,-62.5 17.51,-59.18 16.48,-56.99 17.52,-53.68 17.51,-51.51 16.48,-48.21 17.51,-46.04 17.55,-43.84 16.44,-42.75 17.52,-39.44 17.55,-38.36 16.44,-36.16 17.51,-33.97 16.44,-32.91 17.55,-30.66 17.52,-29.58 16.44,-28.52 17.55,-26.314 17.52,-25.198 16.43,-24.09 17.56,-23.017 17.51,-21.91 16.44,-20.849 17.55,-19.741 17.52,-19.692 16.47,-17.566 17.52,-17.523 17.55,3249.48 16.44,-174.28 17.52,-166.57 17.55,-157.82 16.44,-150.16 17.51,-143.54 17.55,-135.92 16.44,-129.31 17.52,-122.73 16.44,-117.29 17.55,-111.78 17.51,-106.29 16.44,-100.82 17.56,-95.37 17.51,-90.94 16.44,-86.59 17.55,-83.31 17.52,-77.8 16.47,-74.52 17.52,-71.24 17.56,-67.96 16.43,-63.57 17.52,-61.34 17.56,-58.11 16.43,-55.89 17.51,-52.61 17.56,-49.33 16.43,-48.21 17.52,-44.94 17.56,-42.72 16.43,-41.65 17.51,-38.37 16.44,-37.26 17.56,-35.05 17.51,-33.98 16.44,-31.79 17.55,-30.66 17.51,-28.52 16.48,-27.38 17.52,-26.296 17.56,-25.236 16.43,-23.025 17.51,-22.979 17.56,-20.845 16.44,3243.981 17.51,-178.64 17.56,-169.88 16.43,-161.07"
           style="fill:none;stroke:#00ff00;stroke-opacity:1;stroke-width:5.47969;stroke-linecap:butt;stroke-linejoin:miter;stroke-miterlimit:3.8;stroke-dasharray:none"
           id="path3217" /></g><g
         id="g3219"
         transform="scale(0.97682,1.02318)"><path
           d="m 6009.85,3628.23 17.51,-153.44 17.57,-146.86 16.43,-139.21 17.52,-131.48 17.55,-126.06 16.43,-119.46 17.53,-113.96 16.43,-108.5 17.55,-103 17.52,-98.65 16.47,-93.16 17.51,-88.76 17.53,-84.4 16.47,-79.99 17.51,-75.63 17.56,-73.42 16.44,-69.05 17.52,-65.75 17.55,-62.46 16.43,-59.21 17.53,-56.96 17.55,-53.72 16.42,-50.4 17.53,-49.32 17.55,-46.03 16.43,-43.84 17.52,-41.65 17.56,-40.54 16.44,-37.26 17.51,-36.16 17.56,-35.09 16.43,-31.79 17.52,-31.76 16.46,-29.6 17.53,-27.4 17.55,-27.38 16.43,-25.235 17.52,-24.09 17.56,-23.029 16.44,-21.91 17.51,-20.848 17.56,-19.692 16.43,-18.627 17.52,-17.566 17.55,-17.523 16.44,-16.42 17.51,-15.344 17.56,-14.278 16.43,-14.241 17.52,-13.133 17.55,-12.064 16.44,-12.068 17.52,-12.06 17.55,-10.957 16.44,-9.85 17.55,-9.853 16.44,-9.892 17.51,-8.735 17.56,-7.674 16.43,-8.784 17.52,-7.674 17.55,-6.567 16.44,-7.673 17.52,-6.567 17.55,-5.494 16.44,-6.566 17.51,-5.502 17.55,-5.455 16.44,-5.502 17.52,-4.348 17.55,-4.39 16.44,-4.398 17.52,-4.387 17.55,-4.39 16.44,-3.284 17.55,-4.386 17.51,-3.284 16.44,-3.287 17.55,-3.283 16.44,-2.18 17.52,-3.314 17.55,-2.176 16.44,-3.287 17.52,-2.218 17.55,-2.169 16.44,-2.179 17.51,-2.207 17.55,-2.18 16.44,-1.107 17.52,-2.176"
           style="fill:none;stroke:#00ff00;stroke-opacity:1;stroke-width:5.47969;stroke-linecap:butt;stroke-linejoin:miter;stroke-miterlimit:3.8;stroke-dasharray:none"
           id="path3221" /></g><g
         id="g3223"
         transform="scale(10,10)"><text
           transform="matrix(0.95469,0,0,-1,575.746,464.976)"
           id="text3225"><tspan
             style="fill:#000000;fill-opacity:1;fill-rule:nonzero;stroke:none;font-family:f-0;font-variant:normal;font-size:15.6988;writing-mode:lr;-inkscape-font-specification:f-0-0"
             x="0 10.4710996 19.1996324 27.0490324 31.4132988 36.6409992 47.1120988 54.9614988 63.6900316 72.4185644 81.1470972 85.5113636 88.9964972"
             y="0"
             sodipodi:role="line"
             id="tspan3227">Post-Synaptic</tspan></text>
</g><g
         id="g3229"
         transform="scale(0.97682,1.02318)"><path
           d="m 6932.61,4594.84 437.28,0 M 692.342,650.53 l 17.551,-4.348 16.432,-3.326 17.523,-4.348 17.551,-4.387 16.44,-3.287 17.515,-4.398 17.552,-3.283 16.439,-3.272 17.516,-4.398 17.551,-3.287 16.44,-3.283 17.551,-3.314 16.432,-3.283 17.523,-3.284 17.552,-2.18 16.439,-3.283 17.516,-3.283 17.555,-2.211 16.44,-3.283 17.51,-2.18 17.55,-3.321 16.44,-2.169 17.52,-2.18 17.55,-3.283 16.44,-2.222 17.51,-2.168 17.56,-2.219 16.44,-2.179 17.51,-2.207 17.55,3178.236 16.44,-80.01 17.55,-78.88 17.52,-76.74 16.44,-74.52 17.55,-72.34 16.44,-71.21 17.51,-70.17 17.56,-66.85 16.44,-66.85 17.51,-63.56 17.55,-62.45 16.44,-61.4 17.51,-60.25 17.56,-58.1 16.44,-57 17.51,-54.79 17.55,-53.71 16.44,-53.68 17.52,-50.43 17.55,-50.39 16.44,-49.33 17.55,-47.1 17.52,-47.16 16.43,-44.93 17.56,-43.83 17.51,-43.83 16.44,-41.65 17.56,1562.8 16.43,-79.99 17.52,-77.8 17.55,-75.63 16.44,-73.46 17.51,-72.3 17.56,-70.13 16.43,-67.96 17.52,-66.85 17.55,-65.79 16.44,-63.55 17.52,-61.36 17.55,-61.39 16.44,-58.06 17.55,-58.11 17.51,-55.89 16.44,-54.79 17.56,-53.71 17.51,-51.51 16.44,-51.49 17.55,-49.33 17.52,-48.23 16.44,-47.1 17.55,-46.05 17.51,-43.82 16.44,-43.83 17.55,-42.76 16.44,-41.65 17.52,-40.55 17.55,-39.43 16.44,-38.37 17.52,-38.36 17.55,-36.16 16.44,-36.16 17.51,-35.08 17.55,-33.98 16.44,-32.88 17.55,-31.8 17.52,-31.76 16.44,-30.69 17.55,-30.7 17.52,-28.48 16.44,-29.58 17.55,-27.42 17.51,-27.37"
           style="fill:none;stroke:#0000ff;stroke-opacity:1;stroke-width:5.47969;stroke-linecap:butt;stroke-linejoin:miter;stroke-miterlimit:3.8;stroke-dasharray:none"
           id="path3231" /></g><g
         id="g3233"
         transform="scale(0.97682,1.02318)"><path
           d="m 2442.55,1549.23 16.44,-26.31 17.55,-25.23 17.52,-25.19 16.43,-25.2 17.56,-24.13 16.44,-22.99 17.51,-23.01 17.56,-21.92 16.44,-21.95 17.51,-20.81 17.55,-20.8 16.44,-20.85 17.55,-18.63 17.52,-19.74 16.44,-18.63 17.55,-18.63 17.52,-17.52 16.43,-17.52 17.56,-16.46 17.52,-16.42 16.43,-16.45 17.55,-15.35 17.53,-15.35 16.42,-15.34 17.56,-14.24 17.52,-14.24 16.43,-13.14 17.56,-14.28 16.43,-13.134 17.52,-12.061 17.56,-13.133 16.43,-12.06 17.55,-12.064 17.53,-10.953 16.42,-12.072 17.56,-10.957 17.52,-10.953 16.43,-9.854 17.56,-10.957 17.52,-9.888 16.43,-9.853 17.56,-8.777 17.52,-9.85 16.42,-8.777 17.57,-8.747 17.51,2907.52 16.43,-80.01 17.56,-77.81 17.51,-76.7 16.44,-74.53 17.56,-73.44 16.43,-70.14 17.56,-70.13 17.52,-66.85 16.42,-65.77 17.57,-64.64 17.51,-62.5 16.43,-61.35 17.56,-59.18 17.52,-58.1 16.43,-56.96 17.56,-54.83 17.51,-53.67 16.43,-52.61 17.57,-51.54 17.51,-50.39 16.43,-48.22 17.56,-48.22 17.51,-46.05 16.44,-44.93 17.56,-44.93 17.51,-42.73 16.44,-41.65 17.55,-40.54 16.43,-40.55 17.57,-38.36 17.51,-38.37 16.43,-37.26 17.56,-36.16 17.51,-35.08 16.44,-33.98 17.56,-33.98 17.51,-32.87 16.43,-31.76 17.56,-30.7 17.52,-30.69 16.44,-29.59 17.55,-28.48 17.51,-28.52 16.44,-27.38 17.55,-26.3 17.52,-26.3 16.44,-25.19 17.55,-25.25 17.52,-24.08 16.47,-24.13 17.52,-23.03 17.55,-21.91 16.44,-21.91 17.51,-21.91 16.44,-20.81 17.56,-19.74 17.51,-19.73 16.44,-19.75"
           style="fill:none;stroke:#0000ff;stroke-opacity:1;stroke-width:5.47969;stroke-linecap:butt;stroke-linejoin:miter;stroke-miterlimit:3.8;stroke-dasharray:none"
           id="path3235" /></g><g
         id="g3237"
         transform="scale(0.97682,1.02318)"><path
           d="m 4225.65,1240.14 17.55,-18.63 17.52,-18.62 16.44,-17.53 17.55,-17.52 17.51,-17.52 16.44,-16.47 17.55,-16.44 17.52,-15.36 16.44,-15.3 17.55,-15.35 17.51,-15.35 16.48,-14.24 17.52,-13.17 17.55,-14.24 16.44,-13.17 17.51,-13.134 17.56,-12.06 16.43,-13.137 17.52,-12.061 16.44,-10.957 17.55,-12.068 17.51,-10.956 16.44,-10.957 17.56,-9.85 17.51,-10.957 16.44,-9.881 17.55,-9.853 17.52,-9.892 16.44,-8.746 17.55,-9.881 17.51,-8.746 16.48,-8.777 17.52,-8.747 17.51,-7.673 16.48,-7.67 17.51,-8.777 17.55,-7.682 16.44,-6.57 17.52,-7.67 17.55,-7.674 16.44,-6.566 17.51,-6.609 16.44,-6.559 17.55,-6.566 17.52,-6.567 16.44,-5.505 17.55,-6.566 17.52,-5.494 16.43,-5.463 17.56,-5.49 17.51,-5.463 16.44,-5.494 17.55,-5.463 17.52,-4.391 16.47,-5.49 17.52,-4.36 17.55,-4.386 16.44,-5.505 17.52,-4.387 17.55,-3.283 16.44,-4.391 17.51,-4.348 17.55,3099.282 16.44,-81.08 17.52,-77.81 16.44,-76.73 17.55,-75.6 17.51,-72.34 16.44,-71.24 17.56,-69.03 17.51,-67.96 16.44,-65.77 17.55,-64.63 17.52,-62.51 16.47,-61.34 17.52,-59.18 17.56,-58.11 16.43,-56.95 17.52,-54.83 17.56,-54.78 16.43,-52.61 17.51,-50.4 17.56,-50.44 16.43,-49.31 17.52,-47.12 17.56,-47.11 16.43,-44.94 17.51,-43.86 16.44,-43.83 17.56,-41.65 17.51,-40.54 16.44,-40.55 17.55,-38.37 17.51,-38.33 16.48,-37.26 17.52,-36.19 17.56,-35.05 16.43,-35.08 17.51,-32.87 17.56,-32.88 16.44,-31.79 17.51,-31.76 17.56,-29.6 16.43,-29.62"
           style="fill:none;stroke:#0000ff;stroke-opacity:1;stroke-width:5.47969;stroke-linecap:butt;stroke-linejoin:miter;stroke-miterlimit:3.8;stroke-dasharray:none"
           id="path3239" /></g><g
         id="g3241"
         transform="scale(0.97682,1.02318)"><path
           d="m 6009.85,1646.74 17.51,-29.59 17.57,-27.37 16.43,-27.42 17.52,-27.41 17.55,-26.3 16.43,-25.2 17.53,-25.19 16.43,-24.14 17.55,-22.98 17.52,-24.12 16.47,-21.91 35.04,-43.84 16.47,-20.84 17.51,-19.7 17.56,-19.74 16.44,-19.74 17.52,-18.63 17.55,-18.63 16.43,-17.52 17.53,-17.53 17.55,-17.56 16.42,-16.41 17.53,2589.69 17.55,-80.01 16.43,-77.81 17.52,-76.7 17.56,-74.53 16.44,-72.34 17.51,-70.13 17.56,-69.06 16.43,-67.96 17.52,-65.74 16.46,-63.57 17.53,-62.46 17.55,-61.39 16.43,-59.17 17.52,-58.07 17.56,-57 16.44,-54.78 17.51,-53.71 17.56,-52.62 16.43,-50.4 17.52,-50.43 17.55,-48.21 16.44,-48.22 17.51,-46.05 17.56,-44.92 16.43,-43.84 17.52,-42.72 17.55,-42.76 16.44,-40.54 17.52,-39.47 17.55,-39.45 16.44,-37.25 17.55,-37.27 16.44,-36.15 17.51,-35.09 17.56,-33.97 16.43,-33.98 17.52,-32.87 17.55,-31.76 16.44,-30.7 17.52,-29.59 17.55,-29.58 16.44,-29.6 17.51,-27.4 17.55,-27.41 16.44,-27.38 17.52,-25.24 17.55,-26.3 16.44,-24.09 17.52,-24.13 17.55,-24.09 16.44,-23.02 17.55,-21.91 17.51,-21.92 16.44,-20.84 17.55,-20.81 16.44,-20.84 17.52,-19.7 17.55,-19.74 16.44,-18.64 17.52,-18.62 17.55,-17.53 16.44,-17.56 17.51,-16.41 17.55,-16.46 16.44,-16.42 17.52,-16.45"
           style="fill:none;stroke:#0000ff;stroke-opacity:1;stroke-width:5.47969;stroke-linecap:butt;stroke-linejoin:miter;stroke-miterlimit:3.8;stroke-dasharray:none"
           id="path3243" /></g><g
         id="g3245"
         transform="scale(0.97682,1.02318)"><path
           d="m 692.342,5047.44 6861.668,0 0,-4571.152 -6861.668,0 0,4571.152 z"
           style="fill:none;stroke:#000000;stroke-opacity:1;stroke-width:10.9594;stroke-linecap:butt;stroke-linejoin:miter;stroke-miterlimit:3.8;stroke-dasharray:none"
           id="path3247" /></g></g><path
       style="fill:none;stroke:#000000;stroke-width:1px;stroke-linecap:butt;stroke-linejoin:miter;stroke-opacity:1"
       d="m 83.955136,600.18034 c 14.058556,6.22301 37.830774,7.89519 62.562724,10.91618 l 0,-403.63046 c 14.68785,67.71904 31.54675,135.21133 56.91189,201.81523 l 2.42178,-196.97167 c 31.00845,136.8535 64.15121,291.94158 187.68817,365.6892 l 0,-371.34002 c 35.83912,170.30227 85.49409,364.10599 253.0763,395.55785 l 0,-396.36512 c 27.52721,116.06656 51.90877,241.20023 136.02346,331.78424 l 0,-327.74793 c 31.10368,133.58076 68.29897,268.87091 140.86703,333.39876"
       id="path3249"
       inkscape:connector-curvature="0"
       sodipodi:nodetypes="cccccccccccc"
       transform="matrix(0.8,0,0,-0.8,0,547)" /></g></svg>